<svg xmlns="http://www.w3.org/2000/svg" viewBox="0 0 48 48">
  <defs id="defs3051">
    <style type="text/css" id="current-color-scheme">
      .ColorScheme-Text {  color:#31363b; }
      .ColorScheme-Highlight { color:#3daee9; }
    </style>
  </defs>
  <path style="fill:#9bd916" d="M 5,6 V 16 H 4 V 42 H 44 V 13 H 43 V 9 H 24 L 21,6 Z"/>
  <path style="fill-opacity:0.33;fill-rule:evenodd" d="m 5,6 v 10 h 12 l 3,-3 H 43 V 9 H 24 L 21,6 Z"/>
  <path style="fill:#ffffff;fill-opacity:0.2;fill-rule:evenodd" d="M 21 6 L 23 10 L 43 10 L 43 9 L 24 9 L 21 6 z M 20 13 L 17 16 L 4 16 L 4 17 L 18 17 L 20 13 z"/>
  <path style="fill-opacity:0.2;fill-rule:evenodd" d="M 20 13 L 16 15 L 5 15 L 5 16 L 17 16 L 20 13 z M 4 41 L 4 42 C 4 42 44 42 44 42 L 44 41 L 4 41 z "  class="ColorScheme-Text"/>
  <g transform="translate(16,20) scale(.0625)">
    <rect x="100" y="225" width="50"  height="30"  rx="20" ry="10" fill="#bfd330" stroke="#344100" stroke-width="2" />
    <rect x="57"  y="15"  width="136" height="220" rx="35" ry="45" fill="#bfd330" stroke="#344100" stroke-width="4" />
    <ellipse cx="84"  cy="134" rx="26" ry="32" fill="#edefe6" />
    <ellipse cx="178" cy="137" rx="20" ry="28" fill="#edefe6" />
    <ellipse cx="80"  cy="133" rx="7"  ry="9"  fill="#344100" />
    <ellipse cx="187" cy="137" rx="5"  ry="7"  fill="#344100" />
    <path d="M38.1,15.9C52.5,35.8 40.7,85.3 35.8,109.1 33.4,79.4 36.7,57.9 29,30 7.4,22.8 -17.1,45.9 -46.8,48.7c-18.9,0.9 -33.5,-8.1 -38,-25.7 -23.9,3.5 -9.1,71.8 -14.4,92.5 -2.2,8.8 -19.2,-80.6 -2.2,-101.4C-69,-13.6 9.345,-12.610 37.945,15.6900Z" transform="translate(157,8)" fill="#344100" stroke="#344100" />
    <path d="M 0,0 2,1 2,4 C 18,4 50,9 100,3 V 0 h 2 v 8 h -2 V 6 C 40,12 8,3.4 -2,8 -1.1,2.1 -1.1,1.1 0,0 Z" transform="translate(75,184)" fill="#344100" stroke="#344100" />
  </g>
</svg>
