<svg xmlns="http://www.w3.org/2000/svg" viewBox="0 0 48 48">
  <defs id="defs3051">
    <style type="text/css" id="current-color-scheme">
      .ColorScheme-Text {
        color:#31363b;
      }
      .ColorScheme-Highlight {
        color:#3daee9;
      }
      </style>
  </defs>
  <path
     style="fill:#9bd916"
     d="M 5,6 V 16 H 4 V 42 H 44 V 13 H 43 V 9 H 24 L 21,6 Z"
     />
  <path
     style="fill-opacity:0.3;fill-rule:evenodd"
     d="m 5,6 v 10 h 12 l 3,-3 H 43 V 9 H 24 L 21,6 Z"
     />
  <path
     style="fill:#ffffff;fill-opacity:0.2;fill-rule:evenodd"
     d="M 21 6 L 23 10 L 43 10 L 43 9 L 24 9 L 21 6 z M 20 13 L 17 16 L 4 16 L 4 17 L 18 17 L 20 13 z "
     />
  <path
     style="fill-opacity:0.2;fill-rule:evenodd"
     d="M 20 13 L 16 15 L 5 15 L 5 16 L 17 16 L 20 13 z M 4 41 L 4 42 C 4 42 44 42 44 42 L 44 41 L 4 41 z "
     class="ColorScheme-Text"
     />

  <path style="fill:currentColor;fill-opacity:0.6;stroke:none" transform="translate(17,21),scale(0.018)"
      d="m 381,25.2 h 32 l 10,0.8 h 9 l 48,7.6 c 68.2,15.05 130.45,48.1 181,96.4 61,58.4 101.15,140.3 111.15,224 l 1.95,23 0.9,10 c 0.6,50.75 -5.5,95.1 -23.1,143 -40.6,110.8 -131,195.3 -243.9,229.3 -40.7,12.2 -78.7,16.2 -121,15.7 l -10,-1.04 h -9 C 338.4,771 309.25,765.1 281,755.7 228.02,738 179.4,708.6 139,669.96 21.4,557.5 -8.1,376.9 64.4,232 110.97,138.8 191.9,71.8 291,41.02 309.4,35.3 330.9,30.8 350,28.3 l 19,-2.2 z M 325,94 c -0.4,-1.9 -0.7,-4.1 -1.65,-5.8 -4.15,-8 -14.95,-3.1 -21.35,-0.9 -19.2,6.66 -38.5,14.3 -55,26.2 l -30.9,20.8 c -5.6,5.1 -3.8,8.2 -8.3,13.7 -5.78,6.99 -10.7,9.3 -14.6,13.2 l -5.8,7.6 c -3.38,3.75 -5.3,1.9 -8.4,2.9 -3,0.9 -7.8,5.7 -9.4,8.3 -2.9,4.7 0.3,6.4 -2,12 l -11.5,20 c -3.4,9.2 -1,12.5 -3.2,19 -2,5.9 -5.5,9.8 -8.4,15 l -2.9,5.9 c -1.8,3.3 -4,3.9 -4.5,6.3 L 138,269 h -3 v 17 l 2,19 c 0.1,13.5 6.4,14 11.4,25 2.1,4.5 2.59,12 2.6,17 7.15,-0.2 5.7,-1.5 11,-5.4 l 6,-3.5 c 2.1,-1.3 4.4,-3.45 7,-2.8 5.8,1.6 11.5,13.67 3.9,16.3 -1.7,0.6 -4.2,-0.2 -5.9,-0.6 -7.1,13.7 -4,13.7 -5.7,17.96 -0.8,1.84 -2.2,3.64 -4.34,3.74 -1.66,0.1 -6.46,-2.9 -8.96,-3.7 -1.75,3.1 -3.75,7.35 -6.2,9.8 -2.9,2.9 -5.78,3.3 -8.25,5.75 L 133.8,393 c -4.3,5.1 -8.2,6.6 -7.6,14 1.25,16.6 0.6,13.6 4.2,30 0.7,2.9 2.5,7.97 -0.7,9.8 -2.1,1.4 -4.6,0.3 -6.7,0 -8.7,-2.3 -11.02,-2.84 -15.1,-11.8 -2,-4.3 -5.4,-11.65 -6.6,-16 -2.05,-7.6 -0.2,-8.2 -3.5,-17 -2.4,-6.5 -5.2,-7.6 -6.9,-12 -2.1,-5.6 -0.35,-10.8 -6.9,-21 -3.2,5.5 -1.7,10.96 -1.5,17 l 0.5,23 0.5,15 c -0.6,9.9 3.3,23.2 5.1,33 6.7,37.1 19.9,72.3 38.55,105 31.15,54.7 76.87,98.9 132.85,127.7 71.4,36.9 155.4,43 232,20 13.1,-3.9 26.6,-8.65 39,-14.6 7.3,-3.5 4.6,-7.45 5.9,-15.1 0.6,-4.1 -5.1,-11.85 -5,-20 4.66,-8 9.6,-11 14.6,-14.44 4.4,-2.91 2.78,-10.67748 6.48,-13.73 l -2.17,-14.85 c -1.5,-3.5 -2.75,-10.16 0.35,-13.67 2.3,-2.75 7.56,-3.27 10.26,-3.07 2.5,0.35 5.78,-1.36 7.88,-2.76 l 10.63,-6.54 8.15,-3.68 c 3,-3.2 5.64,-13.49 9.54,-16.59 l 15,-4.99 c 9.9,-5.3 7.55,-6.47 14.82,-16.67 l 11.84,-6.04 15.20,-8.65 c 4.6,-5.7 13.90,0.97 17,-7.33 C 678.29,521.8 682.2,529.8 682.3,525 c 0,-3.9 -2.51,-15.76 -1.01,-19.46 C 686.4,493.64 704.3,489 707.7,480 c 2.5,-6.5 5.5,-28.2 6.6,-36 l 2.4,-26 c 0.4,-5.4 1.29,-3.8 1.3,-13 0,-18.3 -3.4,-52.2 -7.35,-70 -4.05,-18 -8.05,-35.75 -14.85,-53 -1.6,-4.04 -5.3,-14.75 -7.8,-17.5 -3.4,-3.9 -12.9,-6.25 -18,-6.5 0.5,8.3 10.6,24.3 4.3,32.85 -2.4,3.15 -4.9,2.65 -8.3,2.3 -11.1,-1.25 -9.4,-6.05 -17.04,-10.95 -10.86,-7 -12.86,-1.9 -18.56,-8.3 -2.7,-3.1 -5.5,-10 -7.75,-13.9 l -8.75,-13 c -1.5,-2.4 -5.35,-9.98 -7.3,-11.2 -2.9,-2.2 -4.9,0.3 -7.6,0 -2.3,-0.1 -5.1,-2.5 -7,-3.8 2,6.8 5.4,7.3 7.9,13 1.8,4.1 1.4,10 5.07,14.9 2.43,3.2 4.53,2.75 6.73,4.7 l 7.8,12.4 c 0.4,1.6 0.15,2.5 0,4 -0.3,7.9 3,6.5 3.8,12 v 7 l 2.1,8 c 0.1,3.2 -1.9,5.2 -2,8 0,1.2 3.5,10.4 4.2,11.7 1.43,2.7 4.8,3 7.4,4 3.7,1.4 6.6,3 8.9,6.4 l 8.5,19.9 c 2.6,4.99 5.2,5.7 5.56,12 l -2.36,21 c 0.15,5.9 4.7,11.02 0.9,20 -1.47,3.35 -4.6,8.15 -7.6,10.3 -2.1,1.5 -4.4,1.9 -6.3,4 -3.62,3.9 -1.8,7.4 -2,10.7 -0.1,2.7 -1.2,4.5 -2,7 -2.5,8.3 -2.45,11.7 -12.6,12 -0.7,-7.5 -2.1,-6.5 -6.2,-12.03 -1,-1.47 -1.9,-3.17 -3.3,-4.37 -2.45,-2.2 -6.7,-2.2 -7.1,-7.6 l 2.35,-18 c 1.65,-5.4 3.75,-7 4.85,-14 1.05,-7.3 -2.4,-14.7 -2.1,-20 0.4,-8.1 2.65,-19.8 -1.3,-27 -2.23,-4.04 -10.9,-15.8 -15.24,-16.5 -5.36,-1.2 -8.66,4.4 -13.76,0 -2.1,-1.53 -8.3,-12.54 -9.9,-15.5 -1.15,-2.2 -2.2,-5.35 -4.6,-6.4 -6.7,-3 -11.7,6.2 -20.6,-1.2 -3.08,-2.6 -10,-14.3 -11.8,-18.4 l -3.4,-8 c -4.2,-7.2 -9,-6.7 -12.7,-10.3 -3.7,-3.5 -3.4,-7.74 -7.4,-11.1 -2.4,-2.1 -4.2,-2.15 -6.8,-3.3 -4.3,-1.8 -6.8,-4.8 -12,-4.1 -5.4,0.6 -7.6,5.2 -11.3,8.4 -3.45,3.1 -5.3,2.8 -8.5,4.7 l -5.3,4 c -5.7,2.85 -9.45,-7 -16.7,-5 -3.5,1 -2.7,4.4 -4.23,8.7 -1.01,2.85 -2.92,8.5 -4.62,10.7 -2.65,3.5 -9,7.5 -7.95,14.3 l 3.2,9 c 0.7,3 -0.1,6 2,8.6 1.3,1.65 4.37,3.2 6.2,4.8 4.1,3.5 13.3,13.5 10.17,19.4 -0.87,1.7 -7.17,7.7 -9.07,8.18 -2.5,0.42 -4.6,-1.38 -7.9,0 -2.9,1.32 -7.25,6.32 -11,8.04 -4.5,2.08 -7.6,-0.42 -14.9,6.28 -8.3,7.72 -3.4,17.1 -12.14,21.4 -6.86,3.1 -13.81,-7.5 -22.66,0 -2.6,2.55 -1.45,4.4 -2.2,7.3 -0.7,3.1 -2.9,5.2 -3.7,9 -0.8,3.6 0.3,6.5 -2,9.8 l -4,4.6 c -1.5,2.5 -2.1,7.8 -7.42,10.58 -2.58,1.32 -13.48,1.52 -16.95,7.32 -1.33,2.3 -0.33,10.9 0.47,13.5 0.75,2.3 2.3,3.6 1.3,6.2 -0.7,1.9 -3.8,5.1 -5.2,7 -2.1,3 -3.1,6.1 -5.8,8.8 -3.6,3.5 -15.1,9 -19.8,11.9 -8.1,5 -4.6,9.7 -9.3,13.6 -3.9,3.2 -7.9,1.6 -10.7,2.1 -3.7,0.7 -5.8,3.7 -9,3.7 -2.5,0 -4,-2.1 -6.2,-3 -1.45,-0.6 -5.9,-0.8 -7.8,-1.1 -1.1,6.9 -3.6,6.3 -4.8,10 -1.9,5.6 6.6,7.7 8.1,9.7 1.9,2.6 -1.2,3.7 -3.32,3.6 H 269 c -9.02,-0.7 -9.4,5.4 -15,3.7 -2.6,-0.7 -4.5,-3.1 -6.4,-4.8 -3.15,-2.8 -6,-4.18 -8,-8.2 -1.9,-3.9 -0.63,-5.6 -1.1,-9 l -2.6,-10 c -1.6,-4.8 -5.4,-10.8 -5.8,-15 -0.6,-6.2 3.3,-14.15 2.8,-22 -0.4,-6.75 -4.4,-7.8 -3.55,-14 0.85,-5.8 5.25,-9.1 6.85,-15 1.45,-5.5 -1.4,-7.9 1,-13 1.7,-3.85 6.4,-8.7 7,-13 0.6,-3.8 -2.4,-6.1 -1.9,-11 l 2.7,-11.9 c 1.7,-3.35 4.9,-4.3 4.2,-9.1 -0.7,-4.5 -8.18,-15.9 -12.4,-17.4 -2.7,-0.9 -5.9,0.7 -8.8,0.7 h -8 l -8,0.5 c -14.3,1.1 -24.85,-22.8 -23.9,-34.8 0.4,-4.6 2.5,-6.1 3.5,-10 0.8,-3.4 -0.2,-6.4 2.1,-9.9 3.3,-4.9 8.9,-5.5 11.8,-8.5 3.48,-3.5 3.3,-9.05 12.6,-18.6 l 16.9,-13.4 5.7,-3.4 c 2.9,-2.6 1.8,-5.17 3.5,-8 1.3,-2.18 5.4,-4.35 7.8,-5.1 8.97,-2.8 11.1,11 17.7,8.3 4.1,-1.75 0.7,-8.05 2.2,-12.4 2,-5.6 8.9,-9.1 14.1,-11 v -2 c -12.4,-7.3 6.7,-10.6 6.7,-19 0,-1.45 -0.5,-2.8 -1.3,-3.9 -5.8,-8.5 -13.9,-0.6 -17.4,-0.8 -3.7,-0.2 -4.98,-4.6 -9.01,-4.2 -7.96,0.88 -6.49,8.6 -13.39,15.8 -5,5.2 -7,3.07 -12.6,6 -3,1.6 -16,13.4 -17.9,16.1 -4.5,6.7 -8.7,24.7 -20.08,17.3 -6.22,-4.1 -3.12,-7.2 -5.62,-12.3 -1.8,-3.7 -4.7,-5.6 -6.4,-10 -6.5,-16.7 4.25,-21.4 10.6,-35 2.15,-4.6 2.3,-9.8 6.05,-15 2.25,-3.1 4.65,-4.6 7.31,-7.2 8.94,-8.4 3.94,-6.4 16.04,-11.82 1.5,-0.68 3.5,-1.88 5,-1.88 3.7,-1.05 4.9,1.2 10,0 5.4,-0.9 8.1,-4.2 13,-4.7 h 9 c 5.9,-0.8 10.1,-7.9 14.9,-6.6 4.3,1.1 2.4,7.2 9.1,9.55 2,0.68 8.9,1.55 11,1.45 4.5,-0.4 18.2,-6.3 21.9,-9 5.1,-3.83 2.15,-5.7 4.7,-9.8 2.6,-3.95 7.2,-4.9 9.7,-8.2 2.5,-3.2 1.9,-7 2,-10.8 0.3,-12.2 -8.6,-11.9 -15.2,-17.8 -4.6,-4.1 -4.2,-7.1 0.9,-10.2 z m 304,105 c -0.6,-11.4 -5,-10.7 -10.8,-17.04 -7,-7.76 -7,-12.36 -19.2,-12.96 5,11.8 12.3,12 17.8,17.2 4.1,3.9 7.5,10 12.2,12.8 z m 33,43 c -1.3,-9.6 -2.2,-15.8 -13,-19 0.9,8.4 4.4,16.45 13,19 z" class="ColorScheme-Text"/>
</svg>
