<svg xmlns="http://www.w3.org/2000/svg" viewBox="0 0 48 48">
  <defs id="defs3051">
    <style type="text/css" id="current-color-scheme">
      .ColorScheme-Text {
        color:#31363b;
      }
      .ColorScheme-Accent {
        color:#3daee9;
      }
      </style>
  </defs>
  <path
     style="fill:currentColor;fill-opacity:1;stroke:none" 
     d="M 5,6 V 16 H 4 V 42 H 44 V 13 H 43 V 9 H 24 L 21,6 Z"
     class="ColorScheme-Accent"
     />
  <path
     style="fill-opacity:0.33;fill-rule:evenodd"
     d="m 5,6 v 10 h 12 l 3,-3 H 43 V 9 H 24 L 21,6 Z"
     />
  <path
     style="fill:#ffffff;fill-opacity:0.2;fill-rule:evenodd"
     d="M 21 6 L 23 10 L 43 10 L 43 9 L 24 9 L 21 6 z M 20 13 L 17 16 L 4 16 L 4 17 L 18 17 L 20 13 z "
     />
  <path
     style="fill-opacity:0.2;fill-rule:evenodd"
     d="M 20 13 L 16 15 L 5 15 L 5 16 L 17 16 L 20 13 z M 4 41 L 4 42 C 4 42 44 42 44 42 L 44 41 L 4 41 z "
     class="ColorScheme-Text"
     />
  <path
    style="fill:currentColor;fill-opacity:0.6;stroke:none;" transform="translate(13,16)"
    d="M 11 3 A 8 8 0 0 0 3 11 L 3 19 L 4 19 L 4 17 L 6 19 L 7 19 L 7 13 L 6 13 L 4 15 L 4 11 A 7 7 0 0 1 11 4 A 7 7 0 0 1 18 11 L 18 15 L 16 13 L 15 13 L 15 19 L 16 19 L 18 17 L 18 19 L 19 19 L 19 11 A 8 8 0 0 0 11 3 z "
    class="ColorScheme-Text"
    />
</svg>
